<svg width="123" height="40" viewBox="0 0 123 40" fill="none" xmlns="http://www.w3.org/2000/svg">
<path d="M25.12 32.04C24.64 32.28 24.0533 32.4933 23.36 32.68C22.6667 32.84 21.9067 32.9867 21.08 33.12C20.28 33.2533 19.4533 33.3467 18.6 33.4C17.7733 33.48 16.9867 33.52 16.24 33.52C14.0267 33.52 11.9733 33.1733 10.08 32.48C8.21333 31.7867 6.6 30.7733 5.24 29.44C3.88 28.1067 2.81333 26.4667 2.04 24.52C1.26667 22.5733 0.88 20.36 0.88 17.88C0.88 15.6133 1.24 13.5333 1.96 11.64C2.68 9.72 3.70667 8.06667 5.04 6.68C6.37333 5.29333 7.98667 4.21333 9.88 3.44C11.7733 2.66667 13.9067 2.28 16.28 2.28C17.88 2.28 19.3067 2.37333 20.56 2.56C21.8133 2.72 23 2.97333 24.12 3.32C24.4133 3.4 24.5867 3.49333 24.64 3.6C24.6933 3.68 24.7067 3.77333 24.68 3.88L24.2 7.28C24.1733 7.46667 24.1067 7.6 24 7.68C23.8933 7.76 23.6933 7.74667 23.4 7.64C22.1467 7.24 20.96 6.96 19.84 6.8C18.72 6.61333 17.52 6.52 16.24 6.52C14.64 6.52 13.1867 6.8 11.88 7.36C10.5733 7.89333 9.45333 8.66667 8.52 9.68C7.58667 10.6667 6.85333 11.8533 6.32 13.24C5.81333 14.6267 5.56 16.1733 5.56 17.88C5.56 19.72 5.81333 21.36 6.32 22.8C6.85333 24.2133 7.58667 25.4133 8.52 26.4C9.48 27.36 10.6133 28.0933 11.92 28.6C13.2267 29.08 14.6667 29.32 16.24 29.32C17.44 29.32 18.48 29.2667 19.36 29.16C20.24 29.0533 20.8933 28.8933 21.32 28.68V20.64H14.72C14.56 20.64 14.4267 20.6 14.32 20.52C14.24 20.4133 14.2 20.2933 14.2 20.16V16.96C14.2 16.8 14.2533 16.6667 14.36 16.56C14.4933 16.4533 14.6267 16.4 14.76 16.4H25C25.4 16.4 25.6533 16.4667 25.76 16.6C25.8667 16.7333 25.92 17 25.92 17.4V30.6C25.92 31 25.84 31.3067 25.68 31.52C25.52 31.7333 25.3333 31.9067 25.12 32.04ZM45.275 32.92C45.0883 32.92 44.9683 32.9067 44.915 32.88C44.8617 32.8267 44.835 32.72 44.835 32.56V30.76C44.1683 31.6933 43.315 32.4 42.275 32.88C41.2617 33.3333 40.235 33.56 39.195 33.56C38.1017 33.56 37.0883 33.4133 36.155 33.12C35.2483 32.8267 34.4617 32.3867 33.795 31.8C33.155 31.2133 32.6483 30.4933 32.275 29.64C31.9017 28.76 31.715 27.7467 31.715 26.6C31.715 25.24 31.955 24.0533 32.435 23.04C32.915 22 33.6617 21.1467 34.675 20.48C35.715 19.7867 37.035 19.28 38.635 18.96C40.235 18.6133 42.1683 18.44 44.435 18.44C44.435 17.9333 44.3817 17.4267 44.275 16.92C44.1683 16.4133 43.9817 15.96 43.715 15.56C43.475 15.16 43.1283 14.84 42.675 14.6C42.2217 14.3333 41.6483 14.2 40.955 14.2C39.755 14.2 38.6617 14.36 37.675 14.68C36.715 15 35.8083 15.4267 34.955 15.96C34.5283 16.2267 34.235 16.3467 34.075 16.32C33.9417 16.2933 33.875 16.1467 33.875 15.88V12.84C33.875 12.7333 33.8617 12.6267 33.835 12.52C33.835 12.3867 33.8617 12.28 33.915 12.2C33.995 12.0933 34.195 11.9467 34.515 11.76C35.4217 11.3067 36.3417 10.9333 37.275 10.64C38.235 10.3467 39.435 10.2 40.875 10.2C43.5683 10.2 45.555 10.8533 46.835 12.16C48.1417 13.4667 48.795 15.52 48.795 18.32V27.8C48.795 28.5467 48.795 29.3333 48.795 30.16C48.8217 30.96 48.875 31.6667 48.955 32.28C49.0083 32.7067 48.8617 32.92 48.515 32.92H45.275ZM44.555 22.24C41.595 22.24 39.475 22.6 38.195 23.32C36.915 24.04 36.275 25.12 36.275 26.56C36.275 27.5733 36.5683 28.3333 37.155 28.84C37.7417 29.3467 38.5283 29.6 39.515 29.6C41.035 29.6 42.2483 29.04 43.155 27.92C44.0883 26.8 44.555 25.0533 44.555 22.68V22.24ZM55.0719 33C54.7785 33 54.6319 32.84 54.6319 32.52V1C54.6319 0.866665 54.6719 0.759998 54.7519 0.679999C54.8585 0.573332 54.9785 0.519999 55.1119 0.519999H58.4719C58.6052 0.519999 58.7119 0.573332 58.7919 0.679999C58.8985 0.759998 58.9519 0.866665 58.9519 1V32.52C58.9519 32.6533 58.8985 32.7733 58.7919 32.88C58.7119 32.96 58.6052 33 58.4719 33H55.0719ZM76.7594 32.92C76.5727 32.92 76.4527 32.9067 76.3994 32.88C76.346 32.8267 76.3194 32.72 76.3194 32.56V30.76C75.6527 31.6933 74.7994 32.4 73.7594 32.88C72.746 33.3333 71.7194 33.56 70.6794 33.56C69.586 33.56 68.5727 33.4133 67.6394 33.12C66.7327 32.8267 65.946 32.3867 65.2794 31.8C64.6394 31.2133 64.1327 30.4933 63.7594 29.64C63.386 28.76 63.1994 27.7467 63.1994 26.6C63.1994 25.24 63.4394 24.0533 63.9194 23.04C64.3994 22 65.146 21.1467 66.1594 20.48C67.1994 19.7867 68.5194 19.28 70.1194 18.96C71.7194 18.6133 73.6527 18.44 75.9194 18.44C75.9194 17.9333 75.866 17.4267 75.7594 16.92C75.6527 16.4133 75.466 15.96 75.1994 15.56C74.9594 15.16 74.6127 14.84 74.1594 14.6C73.706 14.3333 73.1327 14.2 72.4394 14.2C71.2394 14.2 70.146 14.36 69.1594 14.68C68.1994 15 67.2927 15.4267 66.4394 15.96C66.0127 16.2267 65.7194 16.3467 65.5594 16.32C65.426 16.2933 65.3594 16.1467 65.3594 15.88V12.84C65.3594 12.7333 65.346 12.6267 65.3194 12.52C65.3194 12.3867 65.346 12.28 65.3994 12.2C65.4794 12.0933 65.6794 11.9467 65.9994 11.76C66.906 11.3067 67.826 10.9333 68.7594 10.64C69.7194 10.3467 70.9194 10.2 72.3594 10.2C75.0527 10.2 77.0394 10.8533 78.3194 12.16C79.626 13.4667 80.2794 15.52 80.2794 18.32V27.8C80.2794 28.5467 80.2794 29.3333 80.2794 30.16C80.306 30.96 80.3594 31.6667 80.4394 32.28C80.4927 32.7067 80.346 32.92 79.9994 32.92H76.7594ZM76.0394 22.24C73.0794 22.24 70.9594 22.6 69.6794 23.32C68.3994 24.04 67.7594 25.12 67.7594 26.56C67.7594 27.5733 68.0527 28.3333 68.6394 28.84C69.226 29.3467 70.0127 29.6 70.9994 29.6C72.5194 29.6 73.7327 29.04 74.6394 27.92C75.5727 26.8 76.0394 25.0533 76.0394 22.68V22.24ZM98.8763 32.84C98.5829 32.84 98.3829 32.76 98.2763 32.6L93.3563 25L88.4362 32.6C88.3029 32.76 88.1029 32.84 87.8363 32.84H83.7163C83.3963 32.84 83.3563 32.68 83.5963 32.36L90.8763 21.32L84.3163 11.32C84.2096 11.1867 84.1829 11.08 84.2363 11C84.2896 10.8933 84.4229 10.84 84.6363 10.84H88.6363C88.8496 10.84 89.0096 10.92 89.1163 11.08L93.3563 17.64L97.5963 11.08C97.7029 10.92 97.8629 10.84 98.0763 10.84H102.076C102.29 10.84 102.423 10.8933 102.476 11C102.53 11.08 102.503 11.1867 102.396 11.32L95.8363 21.32L103.116 32.36C103.356 32.68 103.316 32.84 102.996 32.84H98.8763ZM113.987 33.8C113.294 35.7467 112.48 37.12 111.547 37.92C110.614 38.72 109.414 39.12 107.947 39.12C107.414 39.12 106.907 39.0933 106.427 39.04C105.947 38.9867 105.547 38.88 105.227 38.72C105.094 38.6667 104.987 38.5867 104.907 38.48C104.827 38.4 104.8 38.28 104.827 38.12L105.067 35.48C105.067 35.1333 105.214 35.0133 105.507 35.12C105.907 35.2267 106.28 35.2933 106.627 35.32C106.974 35.3733 107.294 35.4 107.587 35.4C108.04 35.4 108.4 35.3333 108.667 35.2C108.934 35.0667 109.147 34.8933 109.307 34.68C109.387 34.52 109.494 34.2933 109.627 34C109.787 33.7067 109.947 33.3733 110.107 33C110.267 32.6533 110.414 32.28 110.547 31.88C110.707 31.4533 110.84 31.04 110.947 30.64L104.107 11.24C103.974 10.92 104.08 10.76 104.427 10.76H108.147C108.414 10.76 108.574 10.8267 108.627 10.96L113.067 24.2L117.587 10.96C117.64 10.8267 117.8 10.76 118.067 10.76H121.787C122.134 10.76 122.24 10.92 122.107 11.24L113.987 33.8Z" fill="#111111"/>
</svg>
